<svg version="1.2" xmlns="http://www.w3.org/2000/svg" viewBox="0 0 6720 3780" width="6720" height="3780">
	<title>brackets-light</title>
	<style>
		.s0 { fill: #fefefe } 
		.s1 { fill: #d9d9d9 } 
		.s2 { fill: #8d8d8d } 
		.s3 { fill: #3e3e3e } 
	</style>
	<g id="Background">
		<path id="Path 0" class="s0" d="m0 1890v1890h6720v-3780h-6720z"/>
		<path id="Path 1" class="s1" d="m277.9 205c-3.6 0.3-7.2 1-8 1.6-0.8 0.7-2.3 1.4-3.4 1.7l-2 0.5c3.1 0.1 6.5-0.5 9.5-1.3 4.8-1.3 372.9-1.5 3086.5-1.4 1973.9 0 3082.6 0.3 3085.5 1 2.5 0.5 6.1 1.1 8 1.4 1.9 0.3 2.8 0.2 2-0.1-0.8-0.3-3-1.2-4.7-2-2.8-1.2-435.4-1.4-3085.1-1.6-1694.9-0.2-3084.7-0.1-3088.3 0.2zm-19.9 6.1c-1.4 1.1-3.3 2-4.3 1.9-1 0-2.3 0.7-2.9 1.6-0.6 0.8-2.5 2.1-4.2 2.9-1.7 0.7-4.9 2.9-7.1 4.9-2.2 2-4.5 4-5 4.5-0.6 0.5-1.7 1.9-2.5 3.1-0.8 1.3-2.3 3.2-3.3 4.2-0.9 1-2.6 3.3-3.7 5-1.1 1.8-2.5 4.4-3.2 5.8-0.7 1.4-2 3.6-3 5-1 1.4-1.8 3.8-1.7 5.5l0.1 3c1.3-5.4 2.1-7.2 2.5-7.5 0.4-0.3 1.9-2.7 3.3-5.5 1.4-2.7 4.6-7.7 7.2-11 2.6-3.3 5.2-6.4 5.6-7 0.5-0.6 2.9-2.6 5.2-4.5 2.3-1.9 7.7-5.4 11.9-7.8 4.2-2.3 8.5-4.6 9.6-5.1l2-1c-3.1 0-5.1 0.9-6.5 2zm6207.8 2.4c4.5 2.5 8.5 4.5 8.9 4.5 0.5 0 1.5 0.7 2.3 1.4 0.8 0.8 4.9 4.7 9 8.8 4.4 4.2 9.3 10.2 11.7 14.3 2.2 3.8 4.3 7.7 4.7 8.5 0.3 0.8 0.3 0.2 0-1.5-0.3-1.7-1.5-4.1-2.5-5.5-1.1-1.4-2-2.8-1.9-3.3 0-0.4-2.2-3.5-4.9-7-2.6-3.4-6.6-7.7-8.7-9.4-2.2-1.8-4.6-3.8-5.4-4.5-0.8-0.7-5.2-3.5-9.8-6.1-4.5-2.6-9-4.7-10-4.7-0.9 0 2 2.1 6.5 4.5zm37.8 41.5c0.4 1.4 1.4 4.7 2.3 7.5 1.6 4.6 1.7 119.2 1.7 1629 0 1489.9-0.1 1624.4-1.6 1629-0.9 2.7-2 5.9-2.4 7-0.8 1.8-0.7 1.9 0.8 0.5 1-0.8 2.2-3.8 2.6-6.5 0.5-2.8 1.4-7.9 2-11.5 0.8-4.7 1.1-459.7 1.1-1618.5 0-1158.8-0.3-1613.8-1.1-1618.5-0.6-3.6-1.5-8.8-2-11.5-0.5-2.8-1.6-5.9-2.5-7-1.5-1.9-1.5-1.9-0.9 0.5zm-6288.2 5.7c-0.6 1-1.6 6.4-2.2 12-0.8 7.3-1.1 475.2-1.1 1618 0 1172.3 0.3 1610.8 1.1 1618.8 0.7 6.6 1.7 11.8 2.6 13 1.4 1.9 1.5 1.8 0.8-1-0.3-1.7-1-5.2-1.5-8-0.5-2.8-0.9-716.4-0.9-1623-0.1-1376.2 0.1-1619 1.3-1624.4 0.8-3.5 1.3-6.6 1.2-6.8-0.1-0.3-0.7 0.4-1.3 1.4zm1.8 3266.3c0 1.4 0.6 3.6 1.4 5 0.7 1.4 2.1 3.8 3 5.5 0.8 1.6 2.1 3.9 2.8 5 0.6 1.1 2.5 3.8 4.2 6 1.6 2.2 5.2 6.1 8 8.8 2.7 2.6 7.9 6.8 11.5 9.2 3.6 2.5 7.4 4.5 8.5 4.5 1.6 0 1.3-0.4-1-1.6-1.7-0.8-4.5-2.6-6.3-4-1.7-1.3-3.5-2.4-4-2.4-0.4 0-3.2-2.4-6.2-5.3-3-2.9-7.1-7-9.1-9.2-1.9-2.2-3.9-5.1-4.3-6.5-0.5-1.4-1.4-3.2-2.1-4-0.7-0.8-2.1-3.1-3-5-1-1.9-2.2-4.6-2.6-6l-0.7-2.5zm6284 6.7c-0.6 1.6-2 4.2-2.9 5.9-1 1.7-3.3 5.1-5.2 7.5-1.8 2.4-5.7 6.5-8.5 9.2-2.7 2.6-6.8 5.9-9 7.4-2.2 1.4-5.3 3.4-6.8 4.5-1.5 1-4 2.1-5.5 2.4-1.5 0.4-4 1.3-5.5 2-1.5 0.8-7.3 2.1-13 2.9-9 1.3-373.7 1.5-3083.2 1.4-2545.1 0-3074.7-0.2-3083-1.3-5.5-0.7-12.1-2.1-14.5-3-2.5-0.9-4.8-1.6-5-1.6-0.3 0 0.8 0.9 2.5 2 1.6 1.1 5 2.2 7.5 2.5 2.4 0.4 7.5 1.3 11.2 2.1 5.9 1.2 414.2 1.4 3081.5 1.4h3074.8c17-3.7 23.3-5.5 25-6.4 1.6-0.9 3.5-1.6 4.2-1.6 0.7 0 2.5-0.8 4-1.8 1.5-1.1 4.8-3.2 7.2-4.8 2.5-1.6 7.2-5.7 10.5-9.1 3.4-3.4 7-7.4 8.2-9 1.1-1.5 2.5-3.9 2.9-5.3 0.5-1.4 1.7-3.3 2.7-4.3 1-0.9 1.8-2.6 1.8-3.7 0-1.1-0.2-2-0.4-2-0.1 0-0.8 1.2-1.5 2.7z"/>
		<path id="Path 2" class="s2" d="m277.9 206.4c-0.2 0.2-4 1.2-8.4 2.1-4.4 0.9-8.4 2-9 2.5-0.5 0.4-4.2 2.6-8.1 4.7-3.9 2.1-9.1 5.4-11.4 7.3-2.3 1.9-4.7 3.9-5.2 4.5-0.4 0.6-3 3.7-5.6 7-2.6 3.3-5.8 8.3-7.2 11-1.4 2.8-2.8 5.2-3.3 5.5-0.4 0.3-1.8 5.2-3.2 11l-2.5 10.5c0.1 2507.9 0.5 3238.3 1 3241 0.4 2.7 1.5 7.5 2.2 10.5 0.8 3 2.3 7.1 3.2 9 1 1.9 2.4 4.2 3.1 5 0.7 0.8 1.6 2.6 2.1 4 0.4 1.4 2.4 4.3 4.3 6.5 2 2.2 6.1 6.3 9.1 9.2 3 2.9 5.8 5.3 6.3 5.3 0.4 0 2.8 1.5 5.5 3.3 2.6 1.9 8.3 4.6 12.7 6 4.4 1.4 12.1 3.1 17 3.7 6.2 0.7 960.3 1 3081.5 1 2708.9 0 3073.7-0.2 3082.8-1.5 5.6-0.8 11.4-2.1 12.9-2.9 1.6-0.7 4-1.6 5.5-2 1.6-0.3 4-1.4 5.5-2.4 1.6-1.1 4.6-3.1 6.8-4.5 2.2-1.5 6.1-4.6 8.6-6.9 2.6-2.4 6.8-7 9.3-10.3 2.6-3.3 4.6-6.4 4.6-7-0.1-0.6 0.6-1.7 1.5-2.5 0.9-0.8 2.7-5.1 4.1-9.5 1.5-4.4 3-12.1 3.5-17 0.5-5 0.8-730.7 0.8-1619 0-1015.8-0.3-1613.5-0.9-1619.5-0.5-5.2-2.1-12.6-3.4-16.5-1.3-3.8-4.1-10-6.2-13.6-2.2-3.6-7.3-9.8-11.4-13.8-4.1-4-8.2-7.8-9-8.5-0.8-0.6-5.8-3.3-11-5.8-5.2-2.6-11.5-5.2-14-5.9-3.7-1.1-562.3-1.4-3089.1-1.6-1696.5-0.2-3084.8-0.1-3085 0.1z"/>
		<path id="Path 3" class="s3" d="m272 209.9q-7.5 0.7-10.5 2.7c-1.6 1.1-3.9 2.5-5 3.2-1.1 0.7-3.6 2-5.5 2.8-1.9 0.9-5.5 3.4-8 5.5-2.5 2.2-5.1 4.5-5.7 5.2-0.7 0.6-3.3 3.4-5.7 6.2-2.5 2.7-4.5 5.7-4.5 6.5 0 0.8-0.7 2.2-1.6 3-0.9 0.8-1.6 1.9-1.6 2.5 0.1 0.6-1 2.6-2.3 4.5-1.9 2.8-2.7 6.2-4 17-1.6 12.5-1.7 128.2-1.3 1627 0.3 1378.6 0.6 1614.8 1.8 1622.7 0.9 5.6 2.1 9.8 3.1 11 1 1 1.7 2.5 1.7 3.3 0 0.8 1 2.4 2.1 3.5 1.1 1.1 2.1 3 2 4.2 0 1.6 3 5.4 9.3 11.8 5 5.2 9.9 9.5 10.7 9.5 0.8 0 3.8 1.7 6.5 3.7 3.2 2.3 6.6 3.8 9.6 4.2 2.5 0.3 5.4 1.3 6.4 2.1 1.6 1.3 346.6 1.5 3091.4 1.5 2936.5 0 3089.7-0.1 3092.6-1.7 1.6-1 4.5-1.8 6.3-1.8 1.8 0 4.4-0.9 6-2.3 1.5-1.2 3.6-2.8 4.7-3.4 1.1-0.7 3.2-2 4.8-2.8 1.5-0.8 5-3.6 7.8-6.3 2.8-2.6 7.9-9 11.4-14.2 4.4-6.6 6.5-10.9 7-14 0.3-2.5 1.4-6.1 2.3-8 1.6-3.3 1.7-109.7 1.7-1627 0-1532.4-0.1-1623.8-1.7-1628.5-1-2.8-2-6.6-2.3-8.5-0.3-1.9-2.3-6.2-4.5-9.5-2.2-3.3-4-6.6-4-7.3 0-0.6-2.4-3.6-5.3-6.5-2.9-2.8-7.3-6.8-9.7-8.8-2.5-2-5.6-4-7-4.4-1.4-0.4-2.9-1.1-3.5-1.6-0.6-0.4-3.2-2-6-3.4-3.5-1.9-7.5-2.9-13.5-3.6-4.9-0.5-1302.2-0.8-3088.5-0.7-1694 0-3083.4 0.4-3087.5 0.7z"/>
		<path id="Path 4" class="s2" d="m279 228.5c-1.4 0.8-3.4 1.4-4.5 1.5-1.1 0-4.5 1.2-7.5 2.8-3.1 1.5-7.8 4.5-10.6 6.7-2.8 2.2-6.7 6-8.6 8.5-2 2.5-4.3 6.2-5.2 8.3-0.9 2-2 3.9-2.6 4.2-0.6 0.3-1.3 2-1.6 3.7-0.4 1.8-1.3 4.2-2 5.3-1.2 1.7-1.4 246.1-1.4 1621.5 0.1 1598.4 0.1 1619.6 2 1623.5 1.1 2.2 1.9 4.7 2 5.5 0 0.8 0.9 2.3 2 3.2 1.1 1 2 2.8 2 4 0.1 1.3 2.2 4.8 4.8 7.8 2.6 3 5.6 6.3 6.7 7.3 1.1 0.9 3.7 2.7 5.9 4 2.1 1.2 4.6 2.6 5.6 3.2 0.9 0.6 2.5 1.7 3.5 2.5 1.6 1.3 346.6 1.5 3089.7 1.7l3087.8 0.3c8.9-4.2 12.3-6.2 13.3-7.2 0.9-1 2.3-1.8 3-1.8 0.6 0 4-2.9 7.5-6.5 3.4-3.6 6.2-7.1 6.2-7.8 0-0.6 0.7-1.9 1.5-2.7 0.7-0.8 2.5-3.6 3.9-6.3l2.6-4.7v-3251c-4.2-8.1-6-11.1-6.7-11.8-0.7-0.6-1.3-1.6-1.3-2.2 0-0.6-1.2-2.5-2.7-4.3-1.4-1.7-5.2-5.3-8.2-7.9-3.1-2.6-6.3-4.8-7.1-4.8-0.8 0.1-2.6-0.8-4-1.9-1.4-1-4.7-2.5-7.4-3.3-2.7-0.7-5-1.6-5.2-2-0.2-0.5-1386.5-0.8-3080.7-0.8-2668.2 0.1-3080.5 0.3-3082.7 1.5z"/>
		<path id="Path 5" class="s0" d="m278.5 232.4c-3.3 0.7-7.4 2-9 2.9-1.6 0.9-3.5 1.7-4 1.7-0.6 0-2 0.9-3 2-1.1 1.2-2.2 2.1-2.5 2-0.3 0-1.9 1.2-3.5 2.7-1.7 1.6-4.9 5-7.2 7.8-2.3 2.7-4.2 5.7-4.2 6.5-0.1 0.8-0.8 2.6-1.8 4-0.9 1.4-2.1 4.1-2.6 6-0.6 2.2-1 618.8-1.2 1610.5-0.1 883.8 0.2 1614.2 0.6 1623 0.6 11.9 1.2 16.4 2.3 17.5 0.9 0.8 1.9 3 2.3 4.8 0.4 1.8 1 3.2 1.3 3.2 0.3 0 2.5 2.7 5 6 2.5 3.4 4.7 6.1 5 6 0.3 0 1.9 1.1 3.5 2.5 1.6 1.4 3.4 2.6 4 2.6 0.6 0 1.7 0.6 2.5 1.3 0.8 0.8 5.3 2.5 10 4l8.5 2.6c5832.3 0 6154.9-0.2 6158.3-1.5 2-0.9 4.4-1.5 5.2-1.5 0.8 0 4.3-1.4 7.7-3.2 3.4-1.8 8.3-5.4 11-8.1 2.6-2.6 5.5-5.5 6.4-6.5 0.9-0.9 1.9-2.7 2.3-4 0.3-1.2 1.2-2.8 1.9-3.5 0.7-0.6 2.3-4.8 3.5-9.2l2.3-8-0.6-3234c-3.5-10.5-5.2-14.2-6-15-0.8-0.8-1.5-2.2-1.5-3 0-0.8-0.7-1.7-1.5-2-0.8-0.3-1.7-1.4-2-2.5-0.3-1.1-3.5-4.4-7.3-7.4-3.7-2.9-8.4-5.8-10.5-6.5-2-0.6-3.7-1.4-3.7-1.9 0-0.4-3.5-1.3-7.7-2-6.3-1-618.6-1.2-3082.8-1.1-2457.8 0.1-3076.2 0.3-3081 1.3z"/>
		<path id="Path 6" fill-rule="evenodd" class="s1" d="m3360.8 230.1c2783-0.1 3079.8 0 3084.9 1.5 3.2 0.8 6.7 2.2 7.8 3 1.1 0.8 2.7 1.4 3.5 1.5 0.8 0 3.7 1.8 6.5 4.1 2.7 2.3 6 5.3 7.3 6.7 1.3 1.4 3.7 4.6 5.4 7.1 1.7 2.5 4 7 7.3 15.5v3244l-2.5 6c-1.4 3.3-3.3 6.8-4.3 7.7-0.9 1-1.7 1.6-1.7 1.3 0-0.3 0.5-1.5 1.1-2.7 0.7-1.3 1.5-2.5 1.8-2.8 0.4-0.3 1.7-4.1 5.2-16.5l-0.6-3234-2.3-6.7c-1.2-3.8-2.9-7.5-3.7-8.3-0.8-0.8-1.5-2.2-1.5-3 0-0.8-0.7-1.7-1.5-2-0.8-0.3-1.7-1.4-2-2.5-0.3-1.1-3.5-4.4-7.3-7.4-3.7-2.9-8.4-5.8-10.5-6.5-2-0.6-3.7-1.4-3.7-1.8 0-0.5-3.5-1.4-7.7-2.1-6.3-1-618.7-1.2-3081.8-1.2-2285.2 0-3075.7 0.3-3080.5 1.1-3.6 0.7-8.1 2-10 3-1.9 1.1-4 1.9-4.7 1.9-0.6 0-2 0.9-3 2-1 1.2-2.1 2.1-2.6 2-0.4 0-1.9 1.2-3.5 2.8-1.5 1.5-4.6 5-6.9 7.7-2.3 2.8-4.2 5.7-4.2 6.5-0.1 0.8-0.8 2.6-1.8 4-0.9 1.4-2.1 4.1-2.6 6-0.6 2.2-1 618.8-1.2 1610.5-0.1 883.8 0.2 1614.2 0.6 1623 0.6 11.7 1.2 16.4 2.3 17.5 0.8 0.8 1.7 2.8 2 4.5 0.3 1.7 0.3 2.3 0 1.5-0.4-0.8-1.2-2.2-1.9-3-0.8-0.8-2.2-4.4-3.2-8-1.7-6.3-1.8-58.1-1.8-1622.5 0-1347.8 0.2-1616.8 1.3-1621 0.8-2.7 2.6-7.5 4-10.5 1.4-3 4.4-7.7 6.6-10.5 2.1-2.7 6-6.6 8.5-8.6 2.5-2 6.6-4.7 9.1-6 2.5-1.3 6.7-2.9 9.5-3.5 3.7-0.8 788.9-1.2 3084.3-1.3zm-3115.1 3296.9c0.5 0 2.8 2.7 5.3 6 2.5 3.4 4.7 6.1 5 6 0.3 0 1.8 1.1 3.5 2.5 1.6 1.4 3.4 2.6 4 2.6 0.5 0 1.7 0.6 2.5 1.3 0.8 0.8 5.3 2.5 18.5 6.6h3077.2c2755.1 0 3077.7-0.2 3081-1.5 2.1-0.9 4.5-1.5 5.3-1.5 0.8 0 4.3-1.4 7.7-3.2 3.4-1.8 8.3-5.4 11-8 2.6-2.6 5.4-5.4 6-6.3 0.7-0.8 1.6-1.3 2-1 0.5 0.2-2.1 3.4-5.7 7-3.6 3.6-7 6.5-7.7 6.5-0.6 0-1.9 0.7-2.7 1.5-0.9 0.8-4.4 2.7-14.1 7h-6167l-5.5-2.4c-3-1.3-8.3-4.3-11.7-6.5-3.3-2.3-8.2-6.7-10.7-9.9-2.5-3.1-4.6-5.9-4.6-6.2 0-0.3 0.3-0.5 0.7-0.5zm99.2-3196.5c2 0.4 4.3 1.3 5.1 2.1 0.8 0.7 1.9 1.4 2.5 1.4 0.5 0 4.1 1.6 8 3.5 3.8 2 7.7 4 8.5 4.5 0.8 0.6 2.6 1.4 4 2 1.4 0.5 3.2 1.4 4 2 0.8 0.5 2.6 1.4 4 2 1.4 0.5 3.2 1.4 4 1.9 0.8 0.6 2.8 1.7 4.5 2.5 1.6 0.8 5.9 2.9 9.5 4.6 3.6 1.7 9 4.3 12 5.7 3 1.5 6.2 3.2 7 3.9 0.8 0.6 2.6 1.5 4 1.9 1.4 0.4 3.2 1.3 4 2 0.8 0.7 2.6 1.6 4 2.1 1.4 0.4 4.7 2.1 12.1 6.9l-0.1 8c0 4.4-0.4 8.5-0.8 9.2-0.4 0.6-3.4 2.5-6.7 4.2-3.3 1.7-7.1 3.3-8.5 3.6-1.4 0.2-3.2 1.2-4 2-0.8 0.9-3.2 1.9-5.3 2.3-2 0.4-3.9 1.3-4.2 1.9-0.3 0.7-2 1.5-3.8 1.8-1.7 0.3-3.9 1.2-4.7 2-0.8 0.9-2.9 1.8-4.5 2.2-1.7 0.3-4.1 1.4-5.5 2.5-1.4 1-3.1 1.9-3.8 1.8-0.6 0-3.3 1.1-6 2.5-2.6 1.4-5.4 2.5-6.2 2.5-0.8-0.1-2.2 0.6-3 1.5-0.8 0.8-3.2 1.7-5.3 2-2 0.3-3.7 0.8-3.7 1.2 0.1 0.5-1.4 1.4-3.2 2.1-1.8 0.8-5 2.3-7.1 3.3-2 1-4.2 1.8-4.8 1.6-0.6-0.1 1.1-1.2 3.8-2.5 2.6-1.2 6.5-3.2 8.5-4.2 2.1-1.1 4.2-2 4.8-2 0.5 0 4.9-1.8 9.7-4.1 4.9-2.2 10.6-4.9 12.8-5.9 2.2-1 6.6-3 9.7-4.4 3.2-1.4 6.4-2.6 7-2.6 0.7 0.1 2.5-0.8 4-2 1.6-1.1 3.4-2 4-2 0.7 0 2.2-0.6 3.3-1.3 1.1-0.8 3.8-2 6-2.7 2.2-0.7 4.6-1.8 5.4-2.4 0.8-0.6 2.8-1.6 4.5-2.1 1.6-0.6 3.7-2.3 4.7-4 1.2-2.2 1.5-4.7 0.8-16l-9.2-5.1c-5.1-2.8-10.3-5.4-11.7-5.9-1.4-0.4-4.5-2-7-3.5-2.5-1.4-7.9-4.1-12-6-4.1-1.9-8.2-3.9-9-4.6-0.8-0.7-3.1-1.9-5-2.5-1.9-0.7-6-2.7-9-4.5-3-1.7-6.4-3.4-7.5-3.8-1.1-0.3-4.5-1.9-7.5-3.6-3-1.6-7.9-4.1-10.8-5.5-2.8-1.4-6.2-2.4-7.5-2.3-2.1 0.3-2.2 0.6-2.4 13.3-0.2 9.2 0.1 13.4 1 14.4 0.6 0.7 5.4 3.3 10.4 5.7 5.1 2.4 9.6 4.4 10 4.4 0.5 0 2.6 0.9 4.8 2 2.2 1 5.1 2.4 6.5 2.9 1.4 0.6 3.2 1.5 4 2 0.8 0.6 4.4 2.2 8 3.7 3.6 1.5 6.9 3.1 7.5 3.5 0.5 0.3 1.2 1.6 1.5 2.7 0.4 1.8-0.6 2.5-8.5 5.3-5 1.8-9.5 3.6-10 4-0.6 0.4-4.8 2.1-9.5 3.9-4.7 1.8-10.1 4-12 5-1.9 0.9-4.7 2-6.3 2.4-1.5 0.3-3.8 1.7-5.2 3.1-2.4 2.4-2.5 3-2.5 14.2 0 6.5 0.4 12.4 0.8 13.1 0.5 1 1.8 1.2 4.2 0.7 3.3-0.6 3.4-0.5 1.5 1-1.1 0.8-3 1.5-4.3 1.5-1.2 0-2.4-0.5-2.7-1-0.3-0.6-0.6-7-0.8-14.4-0.2-13.1-0.1-13.5 2.3-16 1.4-1.5 3.8-2.9 5.5-3.3 1.6-0.3 4.3-1.4 6-2.4 1.6-1.1 3.9-1.9 5-1.9 1.1 0 2.9-0.6 4-1.3 1.1-0.8 3.8-2 6-2.7 2.2-0.7 4.9-1.9 6-2.7 1.1-0.7 2.7-1.3 3.5-1.3 0.8-0.1 3.7-1.2 6.5-2.5 2.7-1.4 5.6-2.5 6.2-2.5 0.7 0 1.3-1.1 1.3-2.5 0-1.4-0.6-2.5-1.3-2.5-0.6 0-3.5-1.1-6.2-2.4-2.8-1.3-8.8-4.2-13.5-6.5-4.7-2.2-9.6-4.2-11-4.5-1.4-0.3-3.2-1.3-4-2.1-0.8-0.9-2-1.6-2.5-1.5-0.6 0-3.8-1.3-13.5-6l-0.1-4.8c-0.1-2.6 0-9.2 0.1-14.7 0.1-5.5 0.5-10.4 0.8-10.8 0.3-0.5 2.1-0.6 4.1-0.2zm6022.5 3018.1c1.1 0.4 2.4 1.2 2.8 1.8 0.4 0.6 0.8 6.4 0.8 12.8 0 8.5-0.4 12.6-1.5 14.8-1 2-2.7 3.4-5.3 4.2-2 0.6-4.8 1.7-6.2 2.5-1.4 0.7-3.2 1.3-4 1.3-0.8 0-3.3 0.9-5.5 2-2.2 1-6.7 3-10 4.5-3.3 1.4-6.6 2.5-7.3 2.5-0.6 0-3.6 1.2-6.5 2.7-2.8 1.5-5.7 3.5-6.4 4.3-0.6 0.8-0.9 1.8-0.7 2.2 0.2 0.5 1.2 0.8 2.1 0.8 1-0.1 2.9 0.8 4.3 1.8 1.4 1.1 3.9 2.2 5.5 2.5 1.6 0.4 3.7 1.3 4.5 2.2 0.8 0.8 2.6 1.8 4 2.1 1.4 0.3 3.2 1.1 4 1.8 0.8 0.7 3.4 1.8 5.7 2.4 2.4 0.7 4.3 1.6 4.3 2.2 0 0.5 1.2 1.3 2.7 1.6 1.6 0.3 5.4 1.8 8.5 3.2 4.4 2.1 6 3.4 6.8 5.7 0.6 1.6 1 8.1 1 14.2 0 9-0.3 11.6-1.6 12.8-0.8 0.8-2.2 1.5-3 1.5-0.8 0-3.2-0.7-5.4-1.5-2.2-0.8-4-2-4-2.5 0-0.6-0.8-1-1.8-1-0.9 0-2.8-0.7-4.2-1.4-1.4-0.8-5.2-2.7-8.5-4.4-3.3-1.6-7-3.2-8.3-3.6-1.2-0.3-2.2-1.1-2.2-1.6 0-0.6-1.5-1.4-3.3-1.9-1.7-0.6-3.9-1.8-4.7-2.7-0.8-1-1.1-1.5-0.5-1.3 0.6 0.3 3 1.5 5.5 2.7 2.5 1.2 5.2 2.6 6 3.1 0.8 0.5 4.6 2.4 8.5 4.3 3.9 1.9 7.9 3.9 9 4.5 1.1 0.5 4.4 2.2 7.2 3.6 4.1 2.1 5.8 2.5 7.3 1.7 1.8-0.9 2-2 2-12.8 0-6.4-0.4-12.7-0.8-14-0.4-1.3-1.6-2.5-2.7-2.8-1.1-0.3-5.9-2.6-10.8-5-4.8-2.4-9.1-4.4-9.7-4.4-0.6 0-5.4-2.1-10.8-4.6-5.3-2.6-11.5-5.5-13.7-6.5-2.2-1-4.6-1.9-5.3-1.9-0.6 0-1.2-0.8-1.2-1.8 0-0.9 0.5-2.3 1.2-3 0.7-0.6 1.8-1.2 2.5-1.2 0.7 0 3.8-1.1 6.8-2.5 3-1.4 6.1-2.5 6.7-2.5 0.7 0 2.2-0.6 3.3-1.3 1.1-0.7 5.8-2.8 10.5-4.5 4.7-1.8 9.6-3.9 11-4.6 1.4-0.7 4.1-1.9 6.2-2.5 2-0.7 4.3-2.2 5.2-3.4 1.3-1.7 1.6-4.8 1.7-13.7 0-9.2-0.3-11.8-1.6-12.8-0.9-0.7-2.6-0.9-4.3-0.6-1.5 0.4-3.6 1.2-4.7 1.9-1.1 0.7-5.4 2.7-9.5 4.4-4.1 1.8-10.4 4.6-14 6.3-3.6 1.7-8.1 3.6-10 4.3-1.9 0.7-4.4 1.7-5.5 2.3-1.1 0.5-4.7 2.2-8 3.7-3.3 1.5-7.8 3.5-10 4.5-2.2 1-6 2.7-8.5 3.8-2.5 1.1-7 3.2-10 4.5-3 1.4-6.4 2.7-7.5 3-1.1 0.4-2.8 1.4-3.8 2.4-1.4 1.5-1.7 3.3-1.2 18.6l7 3.8c3.9 2.1 8.1 4.3 9.5 4.9 1.4 0.6 4.7 2.3 7.5 3.7 2.7 1.4 6.1 3.1 7.5 3.8 1.4 0.7 5.2 2.6 8.5 4.1 3.3 1.6 7.4 3.7 12 6.6l-3-0.7c-1.6-0.4-3.3-1.2-3.6-1.8-0.4-0.7-2.3-1.5-4.3-2-2-0.4-3.8-1.4-4.1-2.2-0.3-0.8-1.3-1.5-2.3-1.5-0.9 0-2.8-0.7-4.2-1.4-1.4-0.8-5.6-3-9.5-4.9-3.9-1.9-7.7-3.7-8.5-4.1-0.8-0.3-3.3-1.7-5.5-3.1-2.2-1.3-5-2.9-6.3-3.4-2-1-2.2-1.8-2.2-10.4-0.1-7.6 0.2-9.5 1.7-10.8 1-0.9 4.7-2.9 8.3-4.4 3.6-1.5 8.7-3.8 11.5-5.1 2.7-1.3 5.4-2.4 6-2.4 0.6 0.1 1.7-0.6 2.5-1.5 0.8-0.9 2.2-1.6 3-1.5 0.8 0 3.6-1.1 6.2-2.5 2.7-1.4 5.4-2.5 6-2.5 0.7 0.1 2-0.6 2.8-1.5 0.8-0.9 2.2-1.6 3-1.6 0.8 0 3.7-1 6.5-2.3 2.7-1.3 7.5-3.5 10.5-4.9 3-1.4 7.6-3.4 10.2-4.6 2.7-1.2 6.7-3 9-4.1 2.4-1.1 5.1-2 6-2 1 0 2.1-0.5 2.4-1 0.3-0.6 1.6-0.8 2.8-0.4z"/>
		<path id="Path 7" class="s2" d="m341.5 332.7c-0.5 0.3-0.8 6.3-0.7 13.2 0.1 10.7 0.4 12.8 1.9 14.2 1 0.9 5.7 3.5 10.6 5.7 4.8 2.3 9 4.2 9.5 4.2 0.4 0 2.5 0.9 4.7 2 2.2 1 5.1 2.4 6.5 2.9 1.4 0.6 3.2 1.5 4 2 0.8 0.6 4.4 2.2 8 3.7 3.6 1.5 6.9 3.1 7.5 3.5 0.6 0.3 1.2 1.6 1.5 2.7 0.4 1.8-0.6 2.5-8.5 5.3-4.9 1.8-9.4 3.6-10 4-0.6 0.4-4.8 2.1-9.5 3.9-4.7 1.8-10.1 4-12 5-1.9 0.9-4.7 2-6.3 2.4-1.5 0.3-3.8 1.7-5.2 3.1-2.4 2.4-2.5 3-2.5 14.3 0 6.4 0.4 12.3 0.8 13 0.5 1 1.7 1.2 4.2 0.7 1.9-0.4 5.8-1.8 8.5-3.2 2.8-1.3 6.7-3.3 8.8-4.4 2-1 4.1-1.9 4.7-1.9 0.6 0 4.9-1.8 9.8-4.1 4.8-2.2 10.5-4.9 12.7-5.9 2.2-1 6.6-3 9.8-4.4 3.1-1.4 6.3-2.6 6.9-2.6 0.7 0.1 2.5-0.8 4-2 1.6-1.1 3.4-2 4-2 0.7 0 2.2-0.6 3.3-1.3 1.1-0.8 3.8-2 6-2.7 2.2-0.7 4.6-1.8 5.4-2.4 0.8-0.6 2.8-1.5 4.5-2.1 1.6-0.6 3.7-2.3 4.7-4 1.2-2.2 1.5-4.7 1.2-9.5l-0.4-6.5c-14.3-7.9-19.5-10.5-20.9-11-1.4-0.4-4.5-2-7-3.5-2.5-1.4-7.9-4.1-12-6-4.1-1.9-8.2-3.9-9-4.6-0.8-0.7-3.1-1.9-5-2.5-1.9-0.7-6-2.7-9-4.5-3-1.7-6.4-3.4-7.5-3.8-1.1-0.3-4.5-1.9-7.5-3.6-3-1.6-7.8-4.1-10.5-5.4-2.8-1.4-5.9-2.6-7.1-2.6-1.1 0-2.4 0.3-2.9 0.7zm6020 3018.4c-1.6 0.5-3.4 1.3-4 1.8-0.6 0.5-4.4 2.3-8.5 4-4.1 1.8-10.4 4.6-14 6.3-3.6 1.7-8.1 3.6-10 4.3-1.9 0.7-4.4 1.7-5.5 2.3-1.1 0.5-4.7 2.2-8 3.7-3.3 1.5-7.8 3.5-10 4.5-2.2 1-6.7 3-10 4.5-3.3 1.5-7.8 3.5-10 4.5-2.2 1-4.9 2-6 2.4-1.1 0.3-2.8 1.3-3.8 2.3-1.4 1.5-1.7 3.3-1.5 10.2l0.3 8.4c10.9 5.9 15.1 8.1 16.5 8.7 1.4 0.6 4.7 2.3 7.5 3.7 2.7 1.4 6.1 3.1 7.5 3.8 1.4 0.8 9 4.6 17 8.5 8 3.9 15.2 7.5 16 8 0.8 0.4 4.6 2.3 8.5 4.2 3.9 1.9 7.9 3.9 9 4.5 1.1 0.5 4.4 2.2 7.2 3.6 4.1 2.1 5.8 2.5 7.3 1.7 1.8-0.9 2-2 2-12.7 0-6.5-0.4-12.8-0.8-14.1-0.4-1.3-1.6-2.5-2.7-2.8-1.1-0.3-5.9-2.6-10.8-5-4.8-2.4-9.1-4.4-9.7-4.4-0.6 0-5.4-2.1-10.8-4.6-5.3-2.6-11.5-5.5-13.7-6.5-2.2-1-4.6-1.9-5.3-1.9-0.6 0-1.2-0.8-1.2-1.7 0-1 0.5-2.4 1.2-3 0.7-0.7 1.8-1.3 2.5-1.3 0.7 0 3.8-1.1 6.8-2.5 3-1.4 6.1-2.5 6.7-2.5 0.7 0 2.2-0.6 3.3-1.3 1.1-0.7 5.8-2.8 10.5-4.5 4.7-1.8 9.6-3.9 11-4.6 1.4-0.7 4.1-1.9 6.2-2.5 2-0.7 4.3-2.2 5.2-3.4 1.3-1.7 1.6-4.8 1.6-13.7 0-8-0.4-11.9-1.2-12.8-0.7-0.7-1.7-1.2-2.3-1.1-0.6 0-2.4 0.5-4 1z"/>
		<path id="Path 8" class="s3" d="m344.7 336.4c-0.4 0.9-0.7 6.6-0.7 12.6 0 8.9 0.3 11.1 1.5 11.5 0.8 0.3 2.2 0.5 3 0.5 0.8 0 2.7 0.9 4.3 2 1.5 1.2 3.3 2.1 4 2 0.6 0 2.4 0.9 4 2 1.5 1.2 3.5 2.1 4.5 2 0.9 0 4.1 1.2 7 2.7 2.8 1.5 5.9 3.2 6.7 3.9 0.8 0.6 3.1 1.5 5 1.9 1.9 0.4 4.2 1.3 5 2.1 0.8 0.8 2.9 1.8 4.5 2.2 1.8 0.5 3.7 2.1 4.8 4l1.7 3.2c-8.9 4-13.3 5.5-15.5 5.9-2.2 0.4-5.4 1.7-7 2.9-1.6 1.3-3.7 2.3-4.5 2.3-0.8 0-2.4 0.6-3.5 1.4-1.1 0.9-3.1 1.6-4.5 1.6-1.4 0-6.5 2.2-11.5 4.7l-9 4.7c-0.5 21.5-0.2 23.6 1 24 0.8 0.3 5.4-1.5 10.3-4 4.8-2.5 9.4-4.5 10.2-4.5 0.8 0 2.7-0.8 4.3-2 1.5-1.1 3.3-2 4-2 0.6 0.1 2.4-0.8 4-2 1.5-1.1 3.4-2 4.2-2 0.8 0 5.7-2 10.8-4.4 5-2.4 10.3-4.7 11.7-5.1 1.4-0.4 5.2-2.2 8.5-4 3.3-1.8 7.6-3.5 9.5-3.9 1.9-0.3 4.2-1.3 5-2.2 0.8-0.8 2.9-1.9 4.5-2.4 1.7-0.5 3.3-1.9 3.8-3.2 0.4-1.3 0.8-5 0.9-8.3 0.1-3.3-0.1-6.6-0.5-7.2-0.4-0.7-1.7-1.3-2.9-1.3-1.3 0.1-3-0.6-3.8-1.5-0.8-0.9-3-2-4.7-2.6-1.8-0.5-3.3-1.3-3.3-1.9 0-0.5-1.9-1.5-4.2-2.2-2.4-0.7-4.9-1.8-5.5-2.5-0.7-0.7-1.9-1.3-2.5-1.3-0.7 0-2.9-1.1-4.8-2.5-1.9-1.4-4.5-2.5-5.7-2.5-1.3 0-2.5-0.4-2.8-1-0.3-0.5-2-1.7-3.7-2.5-1.8-0.9-4.4-2.2-5.8-2.9-1.4-0.8-5.2-2.7-8.5-4.2-3.3-1.6-6.6-3.4-7.2-4.1-0.7-0.7-2.5-1.6-4-1.9-1.6-0.3-3.5-0.9-4.3-1.5-0.8-0.5-2.5-1.4-3.7-1.9-1.3-0.6-3.5-1.9-5-2.9-1.6-1.1-4.2-2.2-5.9-2.6-2.3-0.4-3.3-0.2-3.7 0.9zm6015.2 3017.4c-1.3 1.1-3.5 2.3-4.9 2.7-1.4 0.4-3.2 1.3-4 2-0.8 0.8-2.8 1.7-4.5 2-1.6 0.4-3.9 1.3-5 2-1.1 0.6-3.7 1.7-5.7 2.3-2.1 0.7-3.8 1.6-3.8 2.2 0 0.6-2.1 1.4-4.7 2-2.7 0.5-5.5 1.7-6.3 2.5-0.8 0.9-1.9 1.6-2.5 1.5-0.5 0-2.6 0.8-4.5 1.9-1.9 1-4.8 2.1-6.5 2.4-1.6 0.4-3.7 1.4-4.5 2.2-0.8 0.9-2.2 1.6-3 1.5-0.8 0-3.3 1.1-5.5 2.5-2.2 1.3-4.8 2.5-5.7 2.5-1 0-4.8 1.6-8.5 3.6-3.8 1.9-7.4 4-8 4.5-0.9 0.6-1.2 3.2-1 8.1 0.3 6.7 0.5 7.3 2.8 7.9 1.3 0.4 4.4 1.9 6.9 3.3 2.5 1.4 6.1 3.3 8 4.2 1.9 0.8 5.3 2.4 7.5 3.4 2.2 1 4.7 2.6 5.5 3.5 0.8 0.8 2.9 1.8 4.5 2.2 1.7 0.3 5 1.7 7.5 3 2.5 1.3 5.2 3 6 3.7 0.8 0.8 2.6 1.7 4 2.1 1.4 0.3 4.1 1.4 6 2.3 1.9 0.9 4.7 2.7 6.3 3.9 1.5 1.3 3.6 2.3 4.7 2.3 1.1 0 5.2 1.8 9 4 3.9 2.2 7.6 4 8.3 4 0.6 0 2.2 1 3.4 2.3 1.5 1.4 2.8 1.9 3.8 1.4 1.2-0.6 1.5-2.9 1.5-12.2 0-6.3-0.4-12.4-1-13.5-0.5-1.1-1.9-2-3-2-1.1 0-5-1.5-8.6-3.3-3.7-1.7-6.8-3.5-7-4-0.2-0.4-1.9-1-3.6-1.3-1.8-0.4-6.7-2.4-10.8-4.5-4.1-2.1-7.9-3.9-8.5-3.9-0.5 0-3.2-1.1-6-2.4-2.7-1.3-5.8-2.7-6.7-3-1.4-0.5-1.7-1.3-1.2-3.4 0.3-1.5 1.1-3 1.7-3.5 0.7-0.4 3-1.2 5.2-1.8 2.2-0.6 4.5-1.4 5-1.9 0.6-0.4 2.6-1 4.5-1.3 1.9-0.4 4.6-1.6 6-2.7 1.4-1.1 3.2-2 4-2 0.8 0 3.1-0.8 5-1.8 1.9-1.1 5.1-2.2 7-2.5 1.9-0.3 4.2-1.3 5-2.2 0.8-0.9 3.5-2.2 6-3 2.5-0.8 5.1-2 5.7-2.7 0.9-0.9 1.2-4.7 1-12.8-0.2-10.8-0.3-11.5-2.3-11.8-1.1-0.2-3.1 0.6-4.5 1.6z"/>
	</g>
</svg>