<svg version="1.2" xmlns="http://www.w3.org/2000/svg" viewBox="0 0 6720 3780" width="6720" height="3780">
	<title>brackets-dark</title>
	<style>
		.s0 { fill: #111c26 } 
		.s1 { fill: #4d5259 } 
		.s2 { fill: #9da1a4 } 
		.s3 { fill: #f7f8f8 } 
	</style>
	<g id="Background">
		<path id="Path 0" class="s0" d="m1.5 5.7c-1.1 0.2-1.9 1.1-1.7 1.9 0.1 0.8 0.9 1.6 1.7 1.9 1.3 0.4 1.5 210.8 1.5 1885.5v1885h6713l-0.5-3774.5c-5201.8-0.2-6712.9-0.1-6714 0.2z"/>
		<path id="Path 1" fill-rule="evenodd" class="s1" d="m3359.3 3.1c3192.2-0.1 3353.9 0 3357.2 1.6 2.8 1.4 3.5 2.4 3.5 4.5 0 1.6-0.4 2.8-1 2.8-0.6 0-1 1.3-1 3 0 1.6 0.4 3 1 3 0.7 0 1 627.7 1 1881 0 1880.3 0 1881-2 1881-2 0-2-0.8-2.5-3774.5h-3357.8c-1846.7 0-3357.7-0.3-3357.7-0.8 0-0.4 1.2-0.9 2.8-1.1 1.5-0.1 1511.9-0.4 3356.5-0.5zm-3357.9 6.1c0.8 0.4 1.2 482.1 1.4 1885.6 0.2 1675.2 0 1885.2-1.3 1885.2-1.3 0-1.5-210.1-1.4-1885.6 0.1-1404.5 0.4-1885.5 1.3-1885.2z"/>
		<path id="Path 2" class="s2" d="m0 1.8c0 1.6 160.4 1.7 3356.5 1.4 2981.9-0.2 3356.8 0 3359.5 1.3 1.6 0.8 3.2 1.5 3.5 1.5 0.3 0 0.5-1.3 0.5-3v-3c-6559.3 0-6720 0.1-6720 1.8z"/>
		<path id="Path 3" class="s1" d="m268.7 207c-1.5 1.1-4.2 2-5.9 2-1.8 0-4.4 0.7-5.8 1.5-1.4 0.7-4 2.1-5.9 2.9-1.8 0.8-3.3 2-3.2 2.5 0 0.6-0.9 1.4-2.1 1.7-1.3 0.4-3.9 1.9-5.8 3.3-1.9 1.4-5.4 4.6-7.8 7.1-2.5 2.5-5.1 6-5.8 7.8-0.8 1.7-1.7 3.2-2.1 3.2-0.5 0-2 1.6-3.4 3.7-1.4 2.1-2.8 5.8-3.2 8.3-0.4 2.5-1.3 4.9-2.1 5.5-0.8 0.6-1.9 3.3-2.5 6-0.5 2.8-1.5 7-2.1 9.5-0.7 3.2-1 473.9-0.8 1622.6 0.2 1185.4 0.6 1618.5 1.4 1619.5 0.6 0.8 1.4 3.5 1.8 6.2 0.3 2.6 1.5 5.9 2.6 7.5 1.2 1.5 2.1 2.1 2 1.5 0-0.7-0.6-2.3-1.4-3.5-0.8-1.3-2-4.8-2.7-7.8-1.1-4.5-1.4-313.2-1.7-1620-0.2-1212.1 0-1617.1 0.8-1625 0.8-7 2-12.3 3.6-15.7 1.3-2.9 2.4-6 2.4-6.8 0-0.8 1.1-3.5 2.5-6 1.4-2.5 3-4.5 3.5-4.5 0.6 0 1.2-0.8 1.4-1.7 0.3-1 2-3.6 3.8-5.9 1.8-2.2 5.8-6.1 8.8-8.5 3-2.5 6.9-5.3 8.5-6.4 1.7-1 5.5-3.1 8.5-4.7 3-1.5 6.5-2.8 7.8-2.8 1.2 0 3.9-0.9 6-2 3.7-2 11.9-2 3091.2-1.7 2943.8 0.2 3087.6 0.3 3090 2 1.4 0.9 3.6 1.7 5 1.7 1.4 0 4.8 1.1 7.5 2.4 2.8 1.3 7.2 3.9 10 5.7 2.7 1.9 7.2 5.5 10 8 2.7 2.5 7.6 8.4 10.8 13 3.1 4.6 6.3 10.7 7.1 13.4 0.7 2.8 2 6.4 2.9 8 0.8 1.7 2 6.8 2.6 11.5 0.8 6 1.1 475.8 1.1 1619.8 0 1427.3-0.2 1612.3-1.5 1620.7-0.8 5.2-2.1 10.5-2.9 11.8-0.8 1.2-1.7 3.8-2.1 5.7-0.4 1.9-1.3 4.2-2 5-0.6 0.8-2.6 4-4.3 7-1.7 3-5.7 8.3-8.9 11.7-3.2 3.4-8.7 8.2-12.3 10.6-3.6 2.5-8.4 5-10.7 5.6-2.4 0.6-4.5 1.5-4.8 2.1-0.3 0.6-3.8 2-7.7 3.3l-7.3 2.2c-6035.2 0-6168.2-0.1-6172-1.8-2.2-1-4.9-1.7-6-1.7-1.1 0-3.2-0.8-4.7-2-1.6-1.1-3.5-2-4.3-2-0.8 0-3.6-1.2-6.2-2.7-2.7-1.6-5.6-3.5-6.6-4.3-1-0.8-5.1-4.7-9-8.6-4-4-8.2-8.6-9.4-10.3-1.3-1.7-2.3-3.4-2.3-3.8 0.1-0.5-0.8-1.9-1.8-3.3-1.1-1.4-2.2-3.4-2.5-4.5-0.4-1.5-0.5-1.4-0.6 0.8 0 1.5 0.4 2.9 0.9 3.2 0.6 0.3 1.7 2 2.5 3.8 0.9 1.7 3 5.2 4.8 7.7 1.8 2.5 4.2 4.9 5.3 5.4 1 0.5 2.8 2.3 3.9 4 1.1 1.7 3.1 3.6 4.5 4.3 1.4 0.7 3 1.8 3.5 2.6 0.6 0.7 3.1 2.5 5.8 4 2.6 1.5 5.4 2.7 6.2 2.7 0.8 0 2.7 0.9 4.3 2 1.5 1.2 3.8 2.1 5.2 2 1.4 0 3.6 0.8 5 1.7 2.4 1.7 146 1.8 3090.6 1.8 2939.7 0 3088.1-0.1 3089.8-1.7 1-1 2.7-1.8 3.9-1.8 1.2 0.1 3.3-0.8 4.7-1.8 1.4-1 4.3-2.2 6.5-2.6 2.6-0.4 5.6-2.1 8.5-4.6 2.5-2.1 5.1-3.9 5.8-4 0.6 0 2.3-1.5 3.7-3.2 1.4-1.8 3-3.7 3.6-4.3 0.5-0.6 2.2-2.3 3.7-3.8 1.5-1.6 4-5.2 5.5-8 1.6-2.9 3.4-5.9 4.1-6.7 0.8-0.8 1.7-3.3 2.1-5.5 0.3-2.2 1.3-4.7 2.1-5.5 0.7-0.8 1.8-4 2.3-7 0.6-3 1.5-7.1 2.1-9 0.7-2.4 1-493.7 1-1618.3 0-1444.5-0.2-1615.1-1.5-1618.5-0.9-2-1.5-5-1.5-6.7 0-1.6-1.1-5.2-2.5-8-1.3-2.7-2.5-6.2-2.5-7.7 0-1.7-1.6-4.8-4-7.8-2.2-2.7-4-5.4-4-6 0-0.5-3.8-4.8-8.5-9.5-4.7-4.7-9.1-8.5-9.7-8.5-0.7 0.1-2-0.7-2.8-1.6-0.8-0.9-2.9-2.3-4.5-3.1-1.6-0.8-4.1-2.1-5.5-2.8-1.4-0.8-3.9-1.5-5.5-1.5-1.6 0-4.4-0.9-6-2-3-2-11.5-2-3091.6-2-3087 0-3088.6 0-3091.2 2z"/>
		<path id="Path 4" class="s2" d="m269.8 208c-2.1 1.1-4.8 2-6.1 2-1.2 0-4.7 1.3-7.7 2.8-3 1.6-6.9 3.7-8.5 4.7-1.7 1.1-5.5 3.9-8.5 6.4-3 2.4-7 6.3-8.8 8.5-1.8 2.3-3.5 4.9-3.8 5.8-0.2 1-0.8 1.8-1.4 1.8-0.6 0-2.1 2-3.5 4.5-1.4 2.5-2.5 5.2-2.5 6 0 0.8-1.1 3.9-2.4 6.8-1.6 3.4-2.8 8.7-3.6 15.7-0.8 7.9-1 412.9-0.8 1625 0.3 1306.8 0.6 1615.5 1.7 1620 0.7 3 1.8 6.4 2.5 7.5 0.7 1.1 1.7 3.6 2.1 5.5 0.4 1.9 1.6 4.6 2.7 6 1 1.4 1.9 2.8 1.8 3.3 0 0.4 1 2.1 2.2 3.8 1.3 1.7 5.5 6.3 9.5 10.3 3.9 3.9 8 7.8 9 8.6 1 0.8 3.9 2.7 6.5 4.3 2.7 1.5 5.5 2.7 6.3 2.7 0.8 0 2.7 0.9 4.2 2 1.6 1.2 3.7 2 4.8 2 1.1 0 3.8 0.7 6 1.7 3.8 1.7 136.8 1.8 3088 1.8h3084c11.2-3.5 14.7-4.9 15-5.5 0.3-0.6 2.4-1.5 4.7-2.1 2.4-0.6 7.2-3.1 10.8-5.6 3.6-2.4 9.1-7.2 12.3-10.6 3.2-3.4 7.2-8.7 8.9-11.7 1.7-3 3.7-6.2 4.3-7 0.7-0.8 1.6-3.1 2-5 0.4-1.9 1.3-4.5 2.1-5.8 0.8-1.2 2.1-6.5 2.9-11.7 1.3-8.4 1.5-193.4 1.5-1620.8 0-1143.9-0.3-1613.7-1.1-1619.7-0.6-4.7-1.8-9.9-2.6-11.5-0.9-1.6-2.2-5.3-2.9-8-0.8-2.8-4-8.8-7.1-13.4-3.2-4.6-8.1-10.5-10.8-13-2.8-2.5-7.3-6.1-10-8-2.8-1.8-7.3-4.4-10-5.7-2.8-1.3-6.1-2.4-7.5-2.4-1.4 0-3.6-0.8-5-1.7-2.4-1.7-146.2-1.8-3090-2.1l-3087.5-0.2z"/>
		<path id="Path 5" class="s3" d="m272.5 209c-2.8 1.1-5.9 2-7 2-1.1 0.1-3.8 1-6 2.2-2.2 1.1-4.7 2.4-5.5 2.9-0.8 0.5-3 1.7-4.9 2.7-1.8 0.9-5 3-6.9 4.7-2 1.7-6 5.5-8.9 8.5-2.9 3-5.3 5.8-5.3 6.3 0 0.4-1.1 2-2.5 3.7-1.4 1.7-2.5 3.6-2.5 4.3 0.1 0.6-0.6 1.9-1.5 2.7-0.8 0.8-1.8 3.1-2.1 5-0.3 1.9-1.3 4.6-2.2 6-1.6 2.3-1.7 109.1-1.7 1631.5v1629c3.5 6.2 4.5 9 4.5 10.3 0 1.2 0.4 2.4 1 2.7 0.6 0.3 2.3 2.9 3.9 5.7 1.7 2.9 3.8 6.4 4.8 7.7 1 1.3 3.6 4.1 5.8 6.4 2.2 2.2 5.6 5.1 7.5 6.6 1.9 1.4 4.1 3.2 4.8 3.8 0.6 0.7 1.8 1.3 2.5 1.3 0.6-0.1 1.9 0.6 2.7 1.5 0.8 0.8 2.9 1.8 4.5 2.2 1.6 0.3 3.9 1.2 5 1.9 1.1 0.7 5.6 2 10 2.9 7.2 1.3 320.1 1.5 3087.5 1.4 2487.1 0 3080.8-0.2 3086.5-1.3 3.9-0.7 8.4-1.9 10-2.8 1.6-0.8 4.1-1.8 5.5-2.1 1.4-0.3 5.6-2.6 9.5-5.2 3.9-2.5 8.1-5.7 9.5-6.9 1.4-1.3 4.2-4.3 6.2-6.7 2-2.4 4.8-6.1 6.2-8.2 1.4-2 2.6-3.9 2.6-4.2 0-0.3 0.8-1.7 1.9-3.3 1-1.5 2.1-4.5 2.5-6.7 0.4-2.2 1.5-4.8 2.4-5.9 1.6-1.7 1.7-112.3 1.7-1630.1 0-1500.9-0.1-1628.4-1.6-1630.1-0.9-1.1-1.9-3.6-2.3-5.7-0.3-2-1.9-5.8-3.6-8.5-1.6-2.6-3.6-5.8-4.3-7.2-0.7-1.4-2.8-4.3-4.7-6.5-1.9-2.1-4.8-5.1-6.4-6.5-1.6-1.4-3.9-3.4-5.1-4.5-1.1-1.1-3.2-2.6-4.5-3.3-1.4-0.7-5-2.6-8-4.2-3-1.5-6.9-3.1-8.5-3.5-1.6-0.4-5.6-1.5-8.7-2.6-5.7-1.9-47.6-1.9-3087.6-1.9-3054.2 0.1-3081.7 0.1-3086.7 2z"/>
		<path id="Path 6" class="s2" d="m273.8 230.1c-2.1 0.5-4.8 1.5-6.1 2.3-1.2 0.8-3.3 1.7-4.7 2.1-1.4 0.4-3.2 1.3-4 2.1-0.8 0.7-5 4.6-9.2 8.6-4.3 4-7.7 8-7.8 8.8 0 0.8-0.9 3.3-1.9 5.5-1 2.2-2.7 6.5-3.7 9.5-1.8 5.3-1.8 61.4-1.8 1622.5l0.1 1617c4 11.6 6.1 16.9 7.2 19.3 1.2 2.3 4.8 6.9 8.1 10.2 3.3 3.3 7.7 7.1 9.7 8.4 2.1 1.3 6.7 3.5 10.3 4.9l6.5 2.7 6168-0.5c9.3-3.6 13.1-5.5 14.5-6.6 1.4-1.1 2.9-2 3.5-1.9 0.6 0 3.2-2.5 6-5.6 2.7-3 5.5-6.1 6.1-6.7 0.6-0.7 2.4-4.1 4.1-7.7 1.7-3.6 3.6-8.5 4.3-11 0.6-2.5 1.5-7 2-10 0.5-3.1 0.9-695.5 0.9-1613 0-884.1-0.4-1609.8-0.8-1612.5-0.5-2.7-1.6-7.9-2.6-11.5-0.9-3.6-2.3-7.2-3-8-0.7-0.8-1.6-2.6-2.1-4-0.4-1.4-2.1-4-3.8-5.9-1.7-1.8-4.5-4.7-6.1-6.5-1.7-1.7-4.8-4.3-7-5.8-2.2-1.5-4.7-2.8-5.5-2.7-0.8 0-2.2-0.7-3-1.6-0.8-0.8-3.6-2-6.3-2.5-3-0.7-1089.1-1-3086.4-0.9-1821.3 0.1-3083.3 0.5-3085.5 1z"/>
		<path id="Path 7" class="s1" d="m270 233.7c-3.6 1.4-8.3 3.7-10.5 5.3-2.2 1.5-6.5 5.3-9.5 8.4-3 3.1-5.9 6.7-6.4 7.9-0.4 1.2-1.6 4.2-2.6 6.7-1 2.5-2.5 7.6-3.3 11.5-1.4 6.3-1.6 161.9-1.6 1618 0 1448.8 0.2 1611.7 1.6 1618 0.8 3.8 2.1 8.3 2.9 10 0.7 1.7 2 4.7 2.8 6.8 0.9 2 4.8 6.9 8.6 10.7 4.6 4.6 9.1 8 13.3 10 3.4 1.6 6.9 3 7.7 3 0.8 0 2.4 0.7 3.5 1.5 1.8 1.4 359.6 1.5 3083.5 1.6 2777.6 0 3081.6-0.2 3083-1.6 0.8-0.8 2.9-1.7 4.5-2 1.6-0.2 5.9-2 9.5-4 3.6-2 8.1-5.3 10-7.3 1.9-2 4.7-5.3 6.1-7.2 1.4-1.9 3.6-5.7 4.8-8.5 1.2-2.7 3.1-9.3 4.2-14.5 1.9-9.4 1.9-23 1.9-1617v-1607.5c-3.2-15.5-4.5-20.4-5-21-0.5-0.5-1.5-2.6-2.2-4.5-0.7-1.9-3.1-5.8-5.3-8.6-2.2-2.8-6.6-6.9-9.8-9.2-3.1-2.3-9-5.3-12.9-6.7l-7.3-2.5-6165 0.1z"/>
		<path id="Path 8" class="s0" d="m275.5 233.4c-1.1 0.8-3.8 1.7-6 2.1-2.2 0.5-5.4 1.9-7 3.1-1.6 1.3-3.8 3.1-4.8 3.9-0.9 0.8-2 1.5-2.2 1.5-0.3 0-2.8 2.4-5.6 5.2-2.9 3.1-5.3 6.6-5.6 8.3-0.3 1.6-1.5 4.6-2.7 6.5l-2.1 3.5c-0.5 2504.8-0.4 3236.2-0.1 3241.3 0.4 6.2 1.1 9.7 2.1 10.7 0.8 0.8 1.9 3.1 2.5 5 0.6 2.2 3.7 6.2 8.3 10.8 4.3 4.4 9.4 8.3 12.7 9.9 3 1.5 6.6 2.9 8 3.2 1.4 0.3 3.2 1.3 4 2.1 1.4 1.4 293.2 1.6 3082.5 1.6 2815.9 0 3081.1-0.1 3082.5-1.6 0.8-0.9 3.1-1.9 5-2.2 1.9-0.3 4.2-1.1 5-1.8 0.8-0.7 2.6-1.6 4-2 1.4-0.4 3.7-1.8 5.2-3.1 1.6-1.3 3.2-2.4 3.8-2.4 0.6 0 1.2-0.8 1.5-1.8 0.3-0.9 2.6-4 5-6.7 2.5-2.8 4.5-5.8 4.5-6.8 0-0.9 1-3.6 2.2-6l2.3-4.2c0.5-2500.9 0.3-3231.5 0-3237-0.4-7.9-1-10.5-2.5-12.5-1.1-1.4-2.2-4.2-2.5-6.3-0.3-2-0.9-3.7-1.5-3.7-0.6 0-2.7-2.3-4.8-5-2-2.8-4.3-5-5-5-0.6 0-1.5-0.6-2-1.3-0.4-0.6-2.5-2.4-4.7-3.9-2.2-1.5-6-3.1-8.4-3.5-2.4-0.4-4.8-1.4-5.5-2.1-0.9-1.1-562.3-1.3-3083.6-1.3-2645.5 0.1-3082.8 0.3-3084.5 1.5z"/>
		<path id="Path 9" fill-rule="evenodd" class="s1" d="m6443.5 232c0.6 0 3.6 0.9 6.8 2 3.1 1.1 8.3 3.9 11.4 6.2 3.2 2.3 7.6 6.4 9.8 9.2 2.2 2.8 4.6 6.7 5.3 8.6 0.7 1.9 1.7 3.9 2.2 4.5 0.5 0.6 1.8 5.5 5 21v1607.5c0 1594 0 1607.6-1.9 1617-1.1 5.2-3 11.8-4.2 14.5-1.2 2.8-3.3 6.6-4.7 8.5-1.4 1.9-4.8 5.6-7.4 8.3-2.6 2.6-5.4 4.7-6.1 4.7-0.7 0.1-0.4-0.8 0.8-2 1.1-1.2 2.8-2.3 3.7-2.5 1-0.3 2-1.3 2.3-2.3 0.3-0.9 2.6-4 5-6.7 2.5-2.8 4.5-5.8 4.5-6.8 0-0.9 1-3.6 4.5-10.2l0.3-1613.5c0.2-887.4 0-1618-0.3-1623.5-0.4-7.9-1-10.5-2.5-12.5-1.1-1.4-2.2-4.2-2.5-6.3-0.3-2-0.9-3.7-1.5-3.7-0.6 0-2.7-2.3-4.8-5-2-2.8-4.3-5-5-5-0.6 0-1.5-0.6-2-1.3-0.4-0.6-2.7-2.4-5.2-3.9-2.5-1.5-6.2-3.1-8.4-3.5-2.1-0.4-4.3-1.4-4.9-2.1-0.7-0.7-0.8-1.2-0.2-1.2zm-6100.5 97.6c0.8 0.3 2.7 1.1 4.2 1.6 1.5 0.5 2.7 1.4 2.8 1.9 0 0.5 1.9 1.4 4.3 2.1 0.8 0.2 1.7 0.5 2.6 0.9q-1-0.4-1.9-0.5c-3.1-0.6-2.9-0.4 2 2.1 3 1.6 6.9 3.6 8.5 4.5 1.7 0.9 5.9 3.1 9.5 4.8 3.6 1.7 7.2 3.5 8 4 0.8 0.5 8.6 4.4 17.4 8.7 8.7 4.3 16 8 16.1 8.3 0.1 0.3 1.5 0.9 3.1 1.3 1.6 0.5 6.5 3 10.8 5.5 4.3 2.6 8.3 5.5 8.7 6.5 0.5 0.9 0.9 3.8 0.9 6.5 0 2.6-0.4 5.8-0.8 7.1-0.4 1.6-2.6 3.3-6.2 5.1-3 1.5-6.8 3-8.5 3.3-1.6 0.4-3.7 1.4-4.5 2.2-0.8 0.9-1.9 1.6-2.5 1.5-0.5 0-2.6 0.8-4.5 1.9-1.9 1-4.8 2.1-6.5 2.4-1.6 0.4-3.7 1.4-4.5 2.2-0.8 0.9-1.9 1.6-2.5 1.6-0.5 0-3.2 1-6 2.3-2.7 1.4-8.4 4-12.5 5.9-4.1 1.9-9.4 4-11.7 4.6-2.4 0.6-4.5 1.5-4.8 2.1-0.3 0.6-1.5 1.4-2.7 1.9-1.3 0.6-5 2.2-8.3 3.6-5.5 2.4-5.7 2.6-2 1.9 1.5-0.2 3.8-1 5.9-1.9-2 0.9-4.1 1.7-5.4 2-1.9 0.4-4.2 1.4-5 2.2-0.8 0.8-2.8 1.4-4.5 1.4-1.6 0-3.4-0.3-3.8-0.8-0.5-0.4-0.8-6.9-0.7-14.3 0.1-9.9 0.5-14.1 1.6-15.7 0.7-1.3 3.1-2.7 5.2-3.2 2-0.5 4.2-1.6 4.8-2.3 0.7-0.7 3.1-1.7 5.5-2.1 2.4-0.5 5.5-1.7 6.9-2.8 1.4-1.1 3.3-2 4.3-1.9 0.9 0 2.9-0.9 4.5-2 1.5-1.2 4.1-2 5.7-2 1.7 0 4.1-0.9 5.5-2 1.4-1.1 3.4-2.1 4.5-2 1.1 0 2.7-0.4 3.5-0.9 1.3-0.7 1.1-1.3-1.2-3.2-1.4-1.3-3.9-3.3-5.5-4.5-1.5-1.2-4.6-2.4-6.8-2.9-2.2-0.4-5.1-1.6-6.5-2.6-1.4-1.1-3.2-1.9-4-1.9-0.8 0.1-2.2-0.6-3-1.5-0.8-0.9-2.8-1.8-4.5-2.1-1.6-0.2-4.1-1.3-5.5-2.4-1.4-1.2-3.4-2-4.5-2-1.1 0-2.9-0.9-4-2-1.1-1.1-2.4-2-3-2-0.5 0.1-1.5-0.5-2.2-1.2-0.8-0.8-1.3-6.2-1.5-15.2-0.3-13-0.1-14.1 1.7-15.3 1.1-0.7 2.6-1.1 3.5-0.7zm13.9 6.5c1.5 0.5 3.1 1.3 4.1 2.1 1.4 1 3 1.8 3.5 1.8-0.5 0-2.1-0.8-3.5-1.8-0.9-0.6-2.5-1.4-4.1-2.1zm9.1 94.4c-0.8 0.7-3.5 2.5-6 3.8-0.8 0.4-1.6 0.8-2.6 1.2 0.9-0.4 1.8-0.8 2.6-1.2 2.5-1.3 5.2-3.1 6-3.8zm5999.9 2916.7c1.4 0.3 1.6 2.7 1.9 16.3 0.2 14.4 0.1 16.1-1.5 17.3-1 0.7-2.7 1.2-3.8 1.2-1.1 0-2.7 0.7-3.5 1.5-0.8 0.8-3.5 2-6 2.6-2.5 0.6-5.2 1.6-6 2.3-0.8 0.7-2.8 1.7-4.5 2.1-1.6 0.3-3.2 1.1-3.5 1.6-0.3 0.6-2.7 1.4-5.5 2-1.4 0.3-2.9 0.7-4.1 1.2 2-1.2 1.9-1.3 0-1.3-1.2 0-2.7 0.7-3.2 1.5-0.6 0.8-2.7 1.7-4.7 2.1-2.1 0.4-4.3 1.7-5.6 3.3-1.6 2.1-1.7 2.8-0.7 3.6 0.7 0.6 4 2.3 7.3 3.7 3.3 1.4 8.5 3.6 11.5 4.9 3 1.3 6.4 3.1 7.5 4.1 1.1 1 2.9 1.8 4 1.8 1.1 0 4.9 1.5 8.4 3.3 3.5 1.7 6.5 3.5 6.7 4 0.2 0.4 1.4 0.7 2.7 0.6 2.1 0 2.1-0.1 0.2-1-1.1-0.5-4.8-2.5-8.2-4.4-3.5-1.9-7.6-3.5-9.3-3.5 1.7 0 5.8 1.6 9.3 3.5 3.4 1.9 7.7 4.1 12.7 6.5v15.3c0.1 12.5-0.2 15.4-1.5 16.5-1.2 1-2 0.8-4.2-0.8-1.6-1.2-3.1-2.1-3.5-2-0.5 0-2-0.9-3.5-2-1.6-1.2-3.8-2.1-5-2-1.3 0-2.5-0.4-2.8-1-0.3-0.5-2.4-1.9-4.7-3-2.4-1.1-5-2.4-5.8-2.9-0.8-0.5-2.6-1.4-4-2-1.4-0.6-4.3-2.2-6.5-3.6-2.2-1.3-5-2.9-6.2-3.4-1.3-0.6-3-1.1-3.8-1.1-0.8 0-2.1-0.6-2.7-1.3-0.7-0.7-4-2.5-7.3-4.1-3.3-1.5-7.1-3.4-8.5-4.1-1.4-0.7-5.4-2.8-9-4.5-3.6-1.7-7.2-3.6-8-4.1-0.8-0.5-3.1-1.7-5-2.5-1.9-0.9-5-2.7-6.7-4-3.2-2.3-3.3-2.6-3.3-10.1 0-5.3 0.5-8.5 1.5-10 0.8-1.3 2.3-2.3 3.3-2.3 0.9 0.1 2.8-0.8 4.2-1.9 1.4-1 4.6-2.2 7.3-2.5 2.6-0.3 4.7-1 4.7-1.6 0-0.5 2.8-2.3 6.3-3.9 3.4-1.5 7.6-3.2 9.2-3.5 1.7-0.4 3.5-1.1 4-1.6 0.6-0.5 3.1-2 5.8-3.4 2.6-1.4 5.7-2.6 7-2.6 1.2 0 3.8-1.1 5.7-2.5 1.9-1.4 4.2-2.5 5-2.5 0.8 0.1 2-0.6 2.6-1.4 0.6-0.8 2.6-1.8 4.5-2.2 1.9-0.4 6.8-2.5 10.9-4.6 4.1-2.1 8.6-3.8 10-3.8 1.4 0.1 3.4-0.9 4.4-2 1.1-1.1 2.7-1.9 3.5-1.8zm-38.9 49.3q-0.1 0.1-0.2 0.2c0.8-0.4 1.6-0.9 2.2-1.2q0.2-0.1 0.4-0.2c-1.1 0.4-2 0.8-2.4 1.2zm-4.9 2.2q-0.2 0.1-0.5 0.1 0.4 0 0.9-0.2-0.2 0.1-0.4 0.1zm-4.2 2.6c-0.5 0.9-0.9 2.2-0.9 2.7 0-0.5 0.4-1.7 0.9-2.8q0 0 0 0.1zm0.1-0.3c0.6-1.1 1.7-2 2.5-2q0.4 0 1.1-0.2c-1.6 0.5-3.2 1.5-3.7 2.4q0-0.1 0.1-0.2zm6.3-3c0.6-0.4 1.5-0.8 2.5-1.3-0.9 0.7-2.7 1.5-4.3 1.9 0.6-0.2 1.2-0.4 1.8-0.6z"/>
		<path id="Path 10" class="s2" d="m340.5 332.6c-1 0.9-1.4 4.3-1.4 11.6-0.1 5.7 0.2 11.6 0.6 13.1 0.6 2 2.2 3.5 5.3 5.2 2.5 1.3 8.6 4.3 13.5 6.6 4.9 2.3 11.4 5.2 14.3 6.5 2.8 1.3 5.8 2.4 6.4 2.4 0.7 0 2.9 1.1 4.8 2.5 1.9 1.4 4.1 2.5 4.7 2.5 0.7 0 2 0.7 2.8 1.5 0.8 0.8 1.5 2.1 1.5 2.7 0 0.7-3 2.7-6.7 4.4-3.8 1.7-8.2 3.4-9.8 3.8-1.6 0.3-4.8 1.5-7 2.6-2.2 1.1-4.4 2-5 2-0.6-0.1-1.7 0.6-2.5 1.5-0.8 0.8-3.1 1.8-5 2.1-1.9 0.3-5.1 1.5-7 2.5-1.9 1.1-4.1 1.9-4.8 1.9-0.6 0-2.3 1.4-3.7 3-2.4 2.9-2.5 3.5-2.3 14.9 0.2 7.9 0.7 12.4 1.5 13.3 1 1 1.7 1.1 3.5 0.1 1.3-0.7 4.1-1.9 6.3-2.7 2.2-0.8 6.1-2.4 8.8-3.5 2.6-1.2 4.9-2.6 5.2-3.1 0.3-0.6 2.4-1.5 4.7-2.1 2.4-0.6 7.7-2.7 11.8-4.6 4.1-1.9 9.7-4.5 12.5-5.9 2.7-1.3 5.4-2.3 6-2.3 0.6 0 1.7-0.7 2.5-1.6 0.8-0.8 2.9-1.8 4.5-2.2 1.6-0.3 4.6-1.4 6.5-2.4 1.9-1.1 3.9-1.9 4.5-1.9 0.6 0.1 1.7-0.6 2.5-1.5 0.8-0.8 2.9-1.8 4.5-2.2 1.6-0.3 5.5-1.8 8.5-3.3 3.6-1.8 5.8-3.5 6.2-5.1 0.4-1.3 0.8-4.5 0.8-7.2 0-2.6-0.4-5.5-0.9-6.5-0.4-0.9-4.4-3.8-8.7-6.4-4.3-2.5-9.2-5-10.8-5.5-1.6-0.4-3-1-3.1-1.3-0.1-0.3-7.4-4-16.1-8.3-8.8-4.3-16.6-8.2-17.4-8.7-0.8-0.5-4.2-2.3-7.5-3.9-3.3-1.7-6.3-3.1-6.8-3.1-0.4 0-3.1-1.4-6-3.1-2.8-1.7-7-3.8-9.2-4.7-2.2-0.8-4.7-2.1-5.5-2.7-0.8-0.7-2.5-1.5-3.8-1.8-1.3-0.3-2.9 0.1-3.7 0.9zm6022 3018c-1.1 0.8-2.7 1.4-3.5 1.4-0.8 0-6 2.1-11.5 4.6-5.5 2.5-11.8 5.4-14 6.5-2.2 1-4.4 1.8-5 1.8-0.6 0-1.7 0.7-2.5 1.5-0.8 0.8-2.8 1.8-4.5 2.2-1.6 0.4-5.4 1.8-8.3 3.1-2.8 1.2-5.4 2.8-5.7 3.3-0.3 0.6-2 1.3-3.8 1.7-1.7 0.3-5.7 1.7-8.7 3.1-3 1.4-6.2 3-7 3.7-0.8 0.7-2.7 1.5-4.3 1.9-1.5 0.3-5.4 1.8-8.7 3.4-3.6 1.6-6.3 3.5-6.7 4.7-0.3 1.1-0.6 4.9-0.6 8.5 0.1 5.8 0.4 6.7 2.7 8.5 1.4 1.1 5.1 3.3 8.3 4.9 3.2 1.5 8.3 4.1 11.3 5.6 3 1.5 6.9 3.4 8.5 4.3 1.6 0.8 5.5 2.7 8.5 4.1 3 1.4 6.6 3.2 8 4 1.4 0.8 4.3 2.3 6.5 3.3 2.2 1.1 9.9 5 17 8.6 7.1 3.7 13.3 6.7 13.7 6.7 0.5 0 3.6 1.6 7 3.6 4.8 2.7 6.5 3.2 7 2.2 0.5-0.7 0.7-7.6 0.5-15.2-0.2-11.2-0.5-14-1.7-14.6-0.8-0.4-2.6-1.3-4-2-1.4-0.8-5-2.6-8-4.2-3-1.5-6.4-2.8-7.5-2.8-1.1 0-2.9-0.8-4-1.8-1.1-1-4.5-2.8-7.5-4.1-3-1.3-8.2-3.5-11.5-4.9-3.3-1.4-6.6-3.1-7.3-3.7-1-0.8-0.9-1.5 0.6-3.5 1-1.4 3.4-2.8 5.3-3.2 1.9-0.4 4.1-1.4 4.9-2.3 0.8-0.8 3.1-1.8 5-2.1 1.9-0.3 5.1-1.5 7-2.5 1.9-1.1 4.2-1.9 5-1.9 0.8 0.1 2.2-0.6 3-1.5 0.8-0.8 3.5-2 6-2.5 2.5-0.5 5.2-1.7 6-2.5 0.8-0.9 2.4-1.6 3.5-1.5 1.1 0 2.8-0.5 3.8-1.2 1.6-1.2 1.7-2.9 1.5-15.7-0.2-8.5-0.7-14.6-1.3-14.7-0.6-0.2-1.9 0.3-3 1.2z"/>
		<path id="Path 11" class="s3" d="m341.5 337.9c-0.3 2.5-0.5 6.9-0.5 9.6 0 2.8 0.3 6.6 0.6 8.5 0.6 3 1.3 3.8 5.8 5.8 2.8 1.3 6.9 3.1 9.1 4.1 2.2 1.1 6.3 2.9 9 4.1 2.8 1.2 7.4 3.3 10.3 4.6 2.8 1.3 7.6 3.5 10.4 4.8 2.9 1.3 6.1 2.7 7 3 1 0.3 2.5 2 3.3 3.6 1.5 3 1.5 3-2 4.5-1.9 0.8-3.9 1.5-4.5 1.5-0.6 0-2.5 0.9-4.3 2-1.7 1.1-3.9 2-4.7 2-0.8 0-2.6 0.6-4 1.3-1.4 0.8-4.3 1.9-6.5 2.7-2.2 0.7-4.9 1.9-6 2.7-1.1 0.7-2.7 1.3-3.5 1.3-0.8 0.1-3.8 1.2-6.5 2.5-2.8 1.4-5.7 2.5-6.5 2.5-0.8 0-2.7 1.1-4.3 2.5-2.6 2.4-2.7 2.9-2.7 12.5 0 5.5 0.2 10.7 0.5 11.5 0.4 1.1 1.3 1.3 3.2 0.9 1.6-0.4 5.3-1.8 8.3-3.1 3-1.4 7.3-3.3 9.5-4.3 2.2-1 6.2-2.8 9-3.9 2.7-1.2 6.7-3.1 8.7-4.1 2.1-1.1 4.2-2 4.8-2 0.6 0 5.2-2 10.3-4.4 5-2.4 11.2-5.3 13.7-6.5 2.5-1.1 5.2-2.1 6-2 0.8 0 2.2-0.7 3-1.6 0.8-0.8 2.9-1.8 4.5-2.1 1.6-0.4 3.7-1.2 4.5-1.9 0.8-0.7 3.1-1.7 5-2.3 2.2-0.7 3.8-2 4.2-3.4 0.4-1.3 0.8-4.7 0.8-7.5 0-3.7-0.5-5.8-1.8-7.1-0.9-1-21.1-11.4-44.7-23.2-23.6-11.8-43.2-21.7-43.5-22.1-0.3-0.3-1.5-0.8-2.8-1.1-2-0.5-2.3-0.1-2.7 4.1zm6019.8 3014.8c-1.2 0.2-2.8 1.1-3.5 1.9-0.7 0.8-2 1.5-2.8 1.5-0.8-0.1-3.3 0.8-5.5 1.8-2.2 1-7.4 3.3-11.5 5.1-4.1 1.8-9.5 4.2-12 5.3-2.5 1.1-6.1 2.9-8 3.8-1.9 1-4.1 1.8-4.8 1.9-0.6 0-2.4 0.9-4 2-1.5 1.2-3.4 2.1-4.2 2-0.8 0-5.3 1.9-10 4.1-4.7 2.2-10.1 4.9-12 5.9-1.9 0.9-5 2-6.8 2.4-2.2 0.4-3.7 1.5-4.7 3.6-0.8 1.7-1.5 4.8-1.5 7 0 2.2 0.4 5.1 1 6.5 0.5 1.4 1.7 2.5 2.5 2.5 0.8 0 1.7 0.7 2 1.5 0.3 0.8 1.1 1.5 1.7 1.5 0.7 0 7.6 3.1 15.3 7 7.7 3.9 14.6 7 15.2 7 0.7 0 1.5 0.7 1.8 1.5 0.3 0.8 1.3 1.5 2.2 1.5 1-0.1 2.9 0.8 4.3 1.8 1.4 1.1 4 2.2 5.7 2.6 1.8 0.3 3.5 1.2 3.8 1.8 0.2 0.7 1.7 1.7 3.2 2.1 1.6 0.5 3.9 1.8 5.3 2.8 1.4 1.1 3.2 2 4 1.9 0.8 0 2.6 0.8 4 1.7 1.4 1 4.4 2.8 6.7 4 2.4 1.3 4.9 2.3 5.5 2.3 0.7-0.1 2.4 0.8 3.8 1.9 1.4 1 3.7 2.2 5.2 2.5l2.8 0.6v-26c-4.3-1.5-6.2-2.5-7-3-0.8-0.6-2.2-1.3-3-1.6-0.8-0.3-4-1.7-7-3.1-3-1.4-7.8-3.5-10.5-4.8-2.8-1.3-6-2.6-7.3-2.9-1.2-0.3-2.2-1-2.2-1.6 0-0.6-0.8-1-1.8-1-0.9 0-4-1.1-6.7-2.4-2.8-1.4-6.2-2.9-7.8-3.5-2.1-0.9-2.6-1.6-2.1-3.4 0.3-1.2 1.3-2.8 2.3-3.5 0.9-0.7 3.4-1.8 5.6-2.4 2.2-0.6 4.7-1.7 5.5-2.4 0.8-0.7 2.9-1.5 4.5-1.9 1.6-0.4 4.8-1.5 7-2.5 2.2-1 6-2.7 8.5-3.9 2.5-1.1 4.9-2.1 5.5-2.1 0.5 0 3.2-1.2 6-2.5 2.7-1.4 5.7-2.5 6.5-2.5 0.9 0 2.1-0.6 2.8-1.3 0.8-0.8 1.2-5.2 1.2-13.5 0-9.1-0.3-12.2-1.3-12.1-0.6 0.1-2.2 0.4-3.4 0.6z"/>
	</g>
</svg>